<svg width="18" height="43" viewBox="0 0 18 43" fill="none" xmlns="http://www.w3.org/2000/svg">
<path d="M13.518 43C12.3793 43 11.444 42.6543 10.712 41.963C9.98 41.231 9.614 40.3363 9.614 39.279V8.535L10.468 9.877L6.015 13.171C5.44567 13.6183 4.734 13.842 3.88 13.842C2.904 13.842 2.05 13.476 1.318 12.744C0.586 12.012 0.22 11.1377 0.22 10.121C0.22 8.81966 0.850333 7.76233 2.111 6.949L10.895 1.093C11.3017 0.808332 11.749 0.604999 12.237 0.482998C12.7657 0.360998 13.2537 0.299997 13.701 0.299997C14.8803 0.299997 15.8157 0.665997 16.507 1.398C17.1983 2.08933 17.544 2.96366 17.544 4.021V39.279C17.544 40.3363 17.1577 41.231 16.385 41.963C15.653 42.6543 14.6973 43 13.518 43Z" fill="#5F31DA"/>
</svg>
