<svg width="29" height="44" viewBox="0 0 29 44" fill="none" xmlns="http://www.w3.org/2000/svg">
<path d="M24.938 37.29C25.914 37.29 26.7273 37.6153 27.378 38.266C28.0287 38.9167 28.354 39.73 28.354 40.706C28.354 41.6413 28.0287 42.4343 27.378 43.085C26.7273 43.695 25.914 44 24.938 44H4.198C3.14067 44 2.307 43.6747 1.697 43.024C1.087 42.3733 0.782 41.5397 0.782 40.523C0.782 39.5063 1.148 38.6117 1.88 37.839L15.178 23.626C16.6827 21.9993 17.862 20.332 18.716 18.624C19.6107 16.916 20.058 15.4317 20.058 14.171C20.058 12.1377 19.4683 10.511 18.289 9.291C17.1097 8.03033 15.544 7.4 13.592 7.4C12.8193 7.4 12.0263 7.583 11.213 7.949C10.3997 8.315 9.60667 8.82333 8.834 9.474C8.102 10.1247 7.41067 10.877 6.76 11.731C6.272 12.3817 5.784 12.7883 5.296 12.951C4.808 13.1137 4.36067 13.195 3.954 13.195C3.05933 13.195 2.22567 12.8697 1.453 12.219C0.721 11.5277 0.355 10.7347 0.355 9.84C0.355 9.14867 0.578667 8.47766 1.026 7.827C1.514 7.17633 2.10367 6.50533 2.795 5.814C3.81167 4.79733 4.95033 3.90267 6.211 3.13C7.47167 2.35733 8.773 1.76767 10.115 1.361C11.457 0.913664 12.7583 0.689998 14.019 0.689998C16.7437 0.689998 19.1023 1.239 21.095 2.337C23.1283 3.39433 24.694 4.91933 25.792 6.912C26.89 8.864 27.439 11.182 27.439 13.866C27.439 16.1027 26.768 18.6037 25.426 21.369C24.1247 24.0937 22.3557 26.6557 20.119 29.055L11.884 37.839L11.213 37.29H24.938Z" fill="#5F31DA"/>
</svg>
