<svg width="29" height="44" viewBox="0 0 29 44" fill="none" xmlns="http://www.w3.org/2000/svg">
<path d="M4.832 34.399C5.198 34.399 5.58433 34.46 5.991 34.582C6.43833 34.704 6.92633 34.948 7.455 35.314C8.14633 35.8427 8.95967 36.3103 9.895 36.717C10.871 37.1237 11.9893 37.327 13.25 37.327C14.5107 37.327 15.69 37.022 16.788 36.412C17.9267 35.7613 18.862 34.8667 19.594 33.728C20.326 32.5487 20.692 31.1457 20.692 29.519C20.692 27.9737 20.3667 26.6927 19.716 25.676C19.106 24.6593 18.2723 23.8867 17.215 23.358C16.1983 22.8293 15.1003 22.565 13.921 22.565C13.0263 22.565 12.274 22.6463 11.664 22.809C11.0947 22.9717 10.5253 23.1547 9.956 23.358C9.42733 23.5207 8.797 23.602 8.065 23.602C7.12967 23.602 6.39767 23.2767 5.869 22.626C5.381 21.9753 5.137 21.2027 5.137 20.308C5.137 19.7387 5.23867 19.2303 5.442 18.783C5.686 18.3357 6.03167 17.8477 6.479 17.319L17.215 5.912L18.862 7.315H3.856C2.88 7.315 2.06667 6.98966 1.416 6.339C0.765333 5.68833 0.44 4.875 0.44 3.899C0.44 2.96366 0.765333 2.191 1.416 1.581C2.06667 0.930331 2.88 0.604997 3.856 0.604997H22.522C23.7827 0.604997 24.718 0.950664 25.328 1.642C25.9787 2.33333 26.304 3.20767 26.304 4.265C26.304 4.79366 26.1617 5.32233 25.877 5.851C25.5923 6.339 25.2467 6.78633 24.84 7.193L14.043 18.783L12.396 16.709C12.8433 16.5057 13.4533 16.3227 14.226 16.16C15.0393 15.9973 15.7103 15.916 16.239 15.916C18.6383 15.916 20.7123 16.5463 22.461 17.807C24.2503 19.027 25.6127 20.6333 26.548 22.626C27.524 24.578 28.012 26.6927 28.012 28.97C28.012 31.9793 27.341 34.582 25.999 36.778C24.657 38.974 22.766 40.6617 20.326 41.841C17.886 43.0203 15.0393 43.61 11.786 43.61C10.2813 43.61 8.797 43.427 7.333 43.061C5.869 42.695 4.60833 42.207 3.551 41.597C2.65633 41.109 2.04633 40.5803 1.721 40.011C1.43633 39.401 1.294 38.8317 1.294 38.303C1.294 37.3677 1.61933 36.4933 2.27 35.68C2.96133 34.826 3.81533 34.399 4.832 34.399Z" fill="#5F31DA"/>
</svg>
