<svg width="66" height="22" viewBox="0 0 66 22" fill="none" xmlns="http://www.w3.org/2000/svg">
<g clip-path="url(#clip0_678_4646)">
<path d="M14.8086 0.800537H23.3469V21.2437L14.8086 0.800537Z" fill="white"/>
<path d="M8.78741 0.800537H0.242188V21.2437L8.78741 0.800537Z" fill="white"/>
<path d="M11.796 8.33496L17.236 21.2437H13.6705L12.0435 17.1329H8.0625L11.796 8.33496Z" fill="white"/>
</g>
<path fill-rule="evenodd" clip-rule="evenodd" d="M32.0116 13.5499L31.2493 17.0906H29.4961L32.3927 4.25842H34.4696L37.1947 17.0906H35.4224L34.6792 13.5499H32.0116ZM34.4696 12.1219L33.8788 9.05614C33.7073 8.18031 33.5358 7.03855 33.4027 6.12432H33.3262C33.1931 7.05727 33.0019 8.23743 32.831 9.05614L32.2212 12.1219H34.4696ZM43.8868 3.91602V14.711C43.8868 15.4158 43.9249 16.4439 43.9627 17.091H42.4194L42.3051 15.9679H42.2479C41.943 16.615 41.2379 17.2436 40.3045 17.2436C38.5893 17.2436 37.5412 15.3774 37.5412 12.503C37.5412 9.22813 38.9321 7.68591 40.3997 7.68591C41.1426 7.68591 41.7334 8.02894 42.0574 8.7331H42.0955V3.91602H43.8868V3.91602ZM42.0952 11.3603C42.0952 11.1892 42.0952 10.9798 42.0761 10.7888C41.9808 9.95133 41.5044 9.22782 40.8568 9.22782C39.7321 9.22782 39.3513 10.7888 39.3513 12.5027C39.3513 14.4067 39.8468 15.7391 40.7996 15.7391C41.1998 15.7391 41.7331 15.5297 42.038 14.4257C42.0761 14.2734 42.0952 14.0446 42.0952 13.8358V11.3603V11.3603ZM48.1536 17.2433C46.3054 17.2433 44.9711 15.663 44.9711 12.4839C44.9711 9.11358 46.5525 7.68559 48.2486 7.68559C50.078 7.68559 51.3926 9.32302 51.3926 12.4456C51.3926 16.1202 49.5822 17.2433 48.1724 17.2433H48.1536ZM48.2105 15.8346C49.3155 15.8346 49.5635 13.8735 49.5635 12.4649C49.5635 11.0747 49.3158 9.09485 48.1727 9.09485C46.9908 9.09485 46.7625 11.0747 46.7625 12.4649C46.7625 14.0068 47.0293 15.8346 48.1917 15.8346H48.2105ZM52.4725 3.91602H54.2635V8.8851H54.3017C54.7781 8.04766 55.426 7.68559 56.2454 7.68559C57.8268 7.68559 58.8181 9.47533 58.8181 12.3123C58.8181 15.6249 57.4651 17.2433 55.9405 17.2433C55.0258 17.2433 54.5113 16.7479 54.1108 15.9292H54.0352L53.9396 17.0906H52.3963C52.4344 16.4626 52.4725 15.4155 52.4725 14.7107V3.91602V3.91602ZM54.2635 13.8158C54.2635 14.0259 54.2826 14.2353 54.3398 14.3873C54.6253 15.511 55.1783 15.7391 55.54 15.7391C56.6072 15.7391 57.0074 14.3305 57.0074 12.4265C57.0074 10.6558 56.5885 9.22782 55.521 9.22782C54.9302 9.22782 54.4538 9.93229 54.3204 10.5987C54.2823 10.7891 54.2632 11.0369 54.2632 11.227V13.8158H54.2635V13.8158ZM61.4613 12.826C61.4803 15.206 62.5091 15.7959 63.5953 15.7959C64.2433 15.7959 64.7959 15.6439 65.1961 15.4532L65.4629 16.7479C64.9102 17.0335 64.0717 17.1862 63.2523 17.1862C60.9277 17.1862 59.7081 15.4345 59.7081 12.5785C59.7081 9.55118 61.0989 7.68527 63.0236 7.68527C64.9484 7.68527 65.844 9.53214 65.844 11.8553C65.844 12.312 65.8246 12.5979 65.8059 12.8451L61.4613 12.826V12.826ZM64.148 11.5507C64.167 9.91325 63.5953 9.03773 62.8905 9.03773C61.9564 9.03773 61.5372 10.3896 61.4803 11.5507H64.148Z" fill="white"/>
<defs>
<clipPath id="clip0_678_4646">
<rect width="23.1" height="20.4431" fill="white" transform="translate(0.242188 0.800537)"/>
</clipPath>
</defs>
</svg>
