<svg width="52" height="26" viewBox="0 0 52 26" fill="none" xmlns="http://www.w3.org/2000/svg">
<g clip-path="url(#clip0_678_4629)">
<path d="M16.4597 5.29539C16.4597 7.42902 14.7301 9.15866 12.5964 9.15866H8.63281V1.43213H12.5964C14.7301 1.43213 16.4597 3.16177 16.4597 5.29539Z" stroke="white" stroke-width="1.5133"/>
<path d="M0.804688 5.29539C0.804688 7.42902 2.53433 9.15866 4.66796 9.15866H8.63158V1.43213H4.66796C2.53433 1.43213 0.804688 3.16177 0.804688 5.29539Z" stroke="white" stroke-width="1.5133"/>
<path d="M0.804688 13.022C0.804688 15.1556 2.53433 16.8852 4.66796 16.8852H8.63158V9.15869H4.66796C2.53433 9.15869 0.804688 10.8883 0.804688 13.022Z" stroke="white" stroke-width="1.5133"/>
<path d="M0.804688 20.7485C0.804688 22.8822 2.55926 24.6118 4.69289 24.6118C6.85422 24.6118 8.63158 22.8597 8.63158 20.6984V16.8853H4.66796C2.53433 16.8853 0.804688 18.6149 0.804688 20.7485Z" stroke="white" stroke-width="1.5133"/>
<path d="M8.63281 13.022C8.63281 15.1556 10.3625 16.8852 12.4961 16.8852H12.5964C14.7301 16.8852 16.4597 15.1556 16.4597 13.022C16.4597 10.8883 14.7301 9.15869 12.5964 9.15869H12.4961C10.3625 9.15869 8.63281 10.8883 8.63281 13.022Z" stroke="white" stroke-width="1.5133"/>
</g>
<g clip-path="url(#clip1_678_4629)">
<path d="M21.0977 7.02202V15.6136L22.2032 15.617V11.5256H24.8686V10.4442H22.2032V8.10294H25.6745V7.02148L21.0977 7.02202Z" fill="white"/>
<path d="M27.6585 8.76617C28.0567 8.76617 28.3794 8.44337 28.3794 8.04519C28.3794 7.64701 28.0567 7.32422 27.6585 7.32422C27.2603 7.32422 26.9375 7.64701 26.9375 8.04519C26.9375 8.44337 27.2603 8.76617 27.6585 8.76617Z" fill="white"/>
<path d="M27.0977 9.84766V15.6155H28.2031V9.84766H27.0977Z" fill="white"/>
<path fill-rule="evenodd" clip-rule="evenodd" d="M32.3011 9.67944C30.8331 9.67944 29.8086 10.921 29.8086 12.3951C29.8086 13.8692 30.8331 15.1108 32.3011 15.1108C32.9732 15.1108 33.5271 14.8506 33.9302 14.427V15.1949C33.9302 16.1505 33.1795 16.9492 32.1998 16.9492C31.8477 16.9492 31.4978 16.8128 31.2191 16.6206L30.6652 17.58C31.1076 17.8652 31.6344 18.0307 32.1998 18.0307C33.766 18.0307 35.0356 16.7611 35.0356 15.1949V9.84767H33.9302V10.3632C33.5271 9.93964 32.9732 9.67944 32.3011 9.67944ZM30.9141 12.3951C30.9141 11.4801 31.614 10.7609 32.4213 10.7609C33.2286 10.7609 33.9285 11.4801 33.9285 12.3951C33.9285 13.3101 33.2286 14.0293 32.4213 14.0293C31.614 14.0293 30.9141 13.3101 30.9141 12.3951Z" fill="white"/>
<path d="M39.0196 10.7609C38.3659 10.7609 37.836 11.3148 37.836 11.9685V15.6155H36.7305V9.84767H37.836V10.376C38.1599 9.95731 38.6371 9.67944 39.2599 9.67944C40.0345 9.67944 40.629 10.0642 40.9734 10.653C41.3563 10.0843 41.9808 9.67944 42.7326 9.67944C43.9908 9.67944 44.7739 10.6946 44.7814 11.9505C44.7814 11.9543 44.7814 11.9581 44.7814 11.9619V11.9621V11.9623V11.9625C44.7814 11.9645 44.7814 11.9665 44.7814 11.9685V15.6155H43.6759V11.9685C43.6759 11.3148 43.1459 10.7609 42.4923 10.7609C41.8385 10.7609 41.3087 11.3148 41.3087 11.9685V15.6155H40.2032V11.9685C40.2032 11.3148 39.6732 10.7609 39.0196 10.7609Z" fill="white"/>
<path fill-rule="evenodd" clip-rule="evenodd" d="M50.6725 10.5015C50.1806 9.99367 49.5071 9.67944 48.7258 9.67944C47.0812 9.67944 45.9141 11.0719 45.9141 12.7315C45.9141 14.3912 47.0812 15.7837 48.7258 15.7837C49.5071 15.7837 50.1806 15.4695 50.6725 14.9616V15.6155H51.778V9.84767H50.6725V10.5015ZM47.0196 12.7315C47.0196 11.6305 47.8626 10.7609 48.846 10.7609C49.8294 10.7609 50.6725 11.6305 50.6725 12.7315C50.6725 13.8326 49.8294 14.7022 48.846 14.7022C47.8626 14.7022 47.0196 13.8326 47.0196 12.7315Z" fill="white"/>
</g>
<defs>
<clipPath id="clip0_678_4629">
<rect width="17.2593" height="24.7851" fill="white" transform="translate(0 0.629395)"/>
</clipPath>
<clipPath id="clip1_678_4629">
<rect width="30.6832" height="11.1227" fill="white" transform="translate(21.0977 7.02148)"/>
</clipPath>
</defs>
</svg>
