<svg width="40" height="40" viewBox="0 0 40 40" fill="none" xmlns="http://www.w3.org/2000/svg">
<circle cx="20" cy="20" r="19" fill="#1F1926" stroke="#F7F7F7" stroke-width="2"/>
<path d="M15.2 17.18C15.2933 15.9533 15.7667 14.9933 16.62 14.3C17.4733 13.6067 18.58 13.26 19.94 13.26C20.8467 13.26 21.6267 13.4267 22.28 13.76C22.9467 14.08 23.4467 14.52 23.78 15.08C24.1267 15.64 24.3 16.2733 24.3 16.98C24.3 17.8067 24.06 18.52 23.58 19.12C23.1133 19.72 22.5 20.1067 21.74 20.28V20.38C22.6067 20.5933 23.2933 21.0133 23.8 21.64C24.3067 22.2667 24.56 23.0867 24.56 24.1C24.56 24.86 24.3867 25.5467 24.04 26.16C23.6933 26.76 23.1733 27.2333 22.48 27.58C21.7867 27.9267 20.9533 28.1 19.98 28.1C18.5667 28.1 17.4067 27.7333 16.5 27C15.5933 26.2533 15.0867 25.2 14.98 23.84H16.74C16.8333 24.64 17.16 25.2933 17.72 25.8C18.28 26.3067 19.0267 26.56 19.96 26.56C20.8933 26.56 21.6 26.32 22.08 25.84C22.5733 25.3467 22.82 24.7133 22.82 23.94C22.82 22.94 22.4867 22.22 21.82 21.78C21.1533 21.34 20.1467 21.12 18.8 21.12H18.34V19.6H18.82C20.0467 19.5867 20.9733 19.3867 21.6 19C22.2267 18.6 22.54 17.9867 22.54 17.16C22.54 16.4533 22.3067 15.8867 21.84 15.46C21.3867 15.0333 20.7333 14.82 19.88 14.82C19.0533 14.82 18.3867 15.0333 17.88 15.46C17.3733 15.8867 17.0733 16.46 16.98 17.18H15.2Z" fill="white"/>
</svg>
