<svg width="40" height="40" viewBox="0 0 40 40" fill="none" xmlns="http://www.w3.org/2000/svg">
<circle cx="20" cy="20" r="19" fill="#1F1926" stroke="#F7F7F7" stroke-width="2"/>
<path d="M15.02 26.54C16.7133 25.18 18.04 24.0667 19 23.2C19.96 22.32 20.7667 21.4067 21.42 20.46C22.0867 19.5 22.42 18.56 22.42 17.64C22.42 16.7733 22.2067 16.0933 21.78 15.6C21.3667 15.0933 20.6933 14.84 19.76 14.84C18.8533 14.84 18.1467 15.1267 17.64 15.7C17.1467 16.26 16.88 17.0133 16.84 17.96H15.08C15.1333 16.4667 15.5867 15.3133 16.44 14.5C17.2933 13.6867 18.3933 13.28 19.74 13.28C21.1133 13.28 22.2 13.66 23 14.42C23.8133 15.18 24.22 16.2267 24.22 17.56C24.22 18.6667 23.8867 19.7467 23.22 20.8C22.5667 21.84 21.82 22.76 20.98 23.56C20.14 24.3467 19.0667 25.2667 17.76 26.32H24.64V27.84H15.02V26.54Z" fill="white"/>
</svg>
