<svg width="84" height="22" viewBox="0 0 84 22" fill="none" xmlns="http://www.w3.org/2000/svg">
<path d="M27.4107 8.80233C27.4107 7.33362 25.9762 5.79331 23.4829 5.79331C20.6867 5.79331 17.6168 7.81554 17.1467 11.8517C16.6664 15.9274 19.2373 17.7385 21.8287 17.7385C24.4202 17.7385 25.7771 16.7425 27.1649 15.4143C25.9715 13.9364 24.4305 14.6193 24.1352 14.7699C23.6463 15.0375 23.0927 15.1697 22.5334 15.1527C21.5334 15.1527 20.5129 14.7102 20.5129 12.8688C26.9201 12.2446 27.4098 10.2619 27.4098 8.80233H27.4107ZM24.2352 9.04375C24.194 9.4963 24.0109 10.271 20.7662 10.7052C21.4484 8.3094 22.7567 8.12948 23.3576 8.12948C23.4794 8.12402 23.601 8.14437 23.714 8.18915C23.8271 8.23392 23.929 8.30208 24.0129 8.38899C24.0968 8.4759 24.1606 8.57952 24.2001 8.69282C24.2396 8.80611 24.2538 8.92643 24.2417 9.04559L24.2352 9.04375ZM13.3834 9.43663L11.8937 14.0557L10.8424 6.03565C8.49673 6.03565 7.23511 7.68611 6.57721 9.42653L4.76048 14.0658L4.50535 9.4761C4.36704 7.3428 2.38397 6.04483 0.78125 6.04483L2.71946 17.6476C5.17728 17.6385 6.50431 15.9972 7.19867 14.2568L8.73504 10.3123C8.74905 10.473 9.79666 17.6486 9.79666 17.6486C12.2657 17.6486 13.5927 16.1092 14.3039 14.4284L17.7617 6.04575C15.3272 6.04575 14.0441 7.68611 13.3815 9.43663H13.3834ZM36.4719 5.76486C34.9514 5.76486 33.7898 6.57999 32.8085 7.77699V7.76781L33.6851 0.794189C31.6647 0.794189 30.0218 2.52543 29.7059 5.10118L28.1863 17.5577C29.3498 17.5577 30.5844 17.2254 31.2479 16.38C31.8404 17.1345 32.7272 17.7385 34.044 17.7385C37.4513 17.7385 39.7885 13.8345 39.7885 10.171C39.768 6.82967 38.1251 5.77404 36.4822 5.77404L36.4719 5.76486ZM36.1542 11.7526C35.799 13.795 34.644 15.1839 33.5328 15.1839C32.4216 15.1839 31.931 14.6909 31.931 14.6909C32.146 12.9009 32.2787 11.8031 32.6861 10.8567C33.0936 9.91029 34.0636 8.40119 35.0738 8.40119C36.0644 8.40119 36.513 9.69916 36.1551 11.7517L36.1542 11.7526ZM48.2862 6.03657H45.9088L45.9181 5.9154C46.0817 4.3861 46.4489 3.58107 47.6601 3.4498C48.4871 3.36902 48.8544 2.94677 48.946 2.48412L49.2422 0.863953C44.4761 0.833661 42.9678 2.86507 42.5837 5.96589L42.5744 6.03657H42.523C41.7473 6.03657 40.8913 6.90219 40.7474 7.99913L40.696 8.40119H42.2884L40.952 19.288L40.5427 21.2405C40.5941 21.2405 40.6548 21.2496 40.7053 21.2496C42.9388 21.1689 44.3687 19.4284 44.6845 16.9023L45.7275 8.39935H46.4751C47.2096 8.39935 48.0675 7.67418 48.2171 6.46708L48.2862 6.03657ZM60.6519 5.83462C57.9072 5.83462 55.3158 7.82656 54.5214 10.9567C53.7271 14.0869 54.9307 17.789 58.9698 17.789C63.0088 17.789 65.3218 13.9336 65.3218 10.7245C65.3255 7.53465 63.1331 5.8337 60.6529 5.8337L60.6519 5.83462ZM61.764 11.6507C61.622 13.0699 60.9884 15.2233 59.2539 15.2233C57.5194 15.2233 57.7539 12.7082 57.9222 11.5103C58.1063 10.2325 58.8305 8.41129 60.3912 8.41129C61.7949 8.41129 61.9266 10.0517 61.7649 11.6516L61.764 11.6507ZM78.8846 9.42653L77.395 14.0456C77.3548 13.683 76.3446 6.02555 76.3446 6.02555C73.9989 6.02555 72.7429 7.67601 72.085 9.41643L70.2682 14.0557C70.2589 13.7234 70.0131 9.466 70.0131 9.466C69.8655 7.3327 67.8843 6.03473 66.275 6.03473L68.2029 17.6375C70.6607 17.6284 71.9878 15.9871 72.6821 14.2467L74.2129 10.3023C74.2222 10.4629 75.2745 17.6385 75.2745 17.6385C77.7435 17.6385 79.065 16.0991 79.7818 14.4183L83.2423 6.03565C80.8144 6.03565 79.5285 7.67601 78.8753 9.42653H78.8846ZM50.531 0.862118L48.5311 16.7701L48.1217 18.7326C48.1722 18.7326 48.2339 18.7418 48.2844 18.7418C50.4356 18.7115 51.9664 16.8509 52.2533 14.5055L53.4056 5.3784C53.7551 2.5906 52.072 0.860282 50.531 0.860282V0.862118Z" fill="white"/>
</svg>
