<svg width="31" height="31" viewBox="0 0 31 31" fill="none" xmlns="http://www.w3.org/2000/svg">
<g clip-path="url(#clip0_678_4652)">
<path d="M15.4425 0.990955C18.1658 0.990955 20.8166 1.80215 23.0618 3.32312C25.2492 4.80064 26.9729 6.88655 28.0014 9.32011C29.7976 13.5643 29.3196 18.417 26.7412 22.2266C25.2636 24.4139 23.1777 26.1377 20.7442 27.1662C16.4999 28.9624 11.6473 28.4844 7.83763 25.9059C5.65032 24.4284 3.92655 22.3425 2.89808 19.909C1.10189 15.6647 1.57991 10.8121 4.15832 7.00243C5.63584 4.81513 7.72176 3.09135 10.1553 2.06289C11.8211 1.3531 13.6318 0.990955 15.4425 0.990955ZM15.4425 0.121826C7.44652 0.121826 0.957031 6.61132 0.957031 14.6073C0.957031 22.6033 7.44652 29.0928 15.4425 29.0928C23.4385 29.0928 29.928 22.6033 29.928 14.6073C29.928 6.61132 23.4385 0.121826 15.4425 0.121826Z" fill="white"/>
<path d="M3.375 14.607C3.375 19.2279 6.01136 23.4576 10.1832 25.4711L4.41795 9.69646C3.72265 11.2464 3.375 12.9122 3.375 14.607ZM23.5967 13.9986C23.5967 12.5066 23.0608 11.4781 22.5972 10.667C22.1337 9.8558 21.4094 8.82734 21.4094 7.84232C21.4094 6.85731 22.2496 5.69847 23.4374 5.69847H23.5967C18.6861 1.19349 11.0523 1.52665 6.54732 6.45172C6.11275 6.92974 5.70716 7.43673 5.35951 7.97269H6.14173C7.40196 7.97269 9.3575 7.81335 9.3575 7.81335C10.0093 7.7699 10.0818 8.72594 9.42993 8.81285C9.42993 8.81285 8.77808 8.88528 8.05381 8.92873L12.4429 22.0091L15.0793 14.0855L13.1961 8.92873C12.5443 8.88528 11.9359 8.81285 11.9359 8.81285C11.2841 8.76939 11.3565 7.78438 12.0083 7.81335C12.0083 7.81335 14.0073 7.97269 15.1807 7.97269C16.354 7.97269 18.3964 7.81335 18.3964 7.81335C19.0483 7.7699 19.1207 8.72594 18.4689 8.81285C18.4689 8.81285 17.817 8.88528 17.0927 8.92873L21.4529 21.9077L22.6986 17.9676C23.2491 16.2439 23.5822 15.0271 23.5822 13.9841L23.5967 13.9986ZM15.6442 15.65L12.0228 26.1809C14.4564 26.8907 17.0493 26.8327 19.4394 25.9926L19.3525 25.8332L15.6442 15.65ZM26.0303 8.81285C26.0882 9.21844 26.1172 9.63852 26.1172 10.0586C26.1172 11.2898 25.8854 12.6659 25.2046 14.3752L21.5108 25.0365C27.1601 21.7483 29.1736 14.5491 26.0303 8.81285Z" fill="white"/>
</g>
<defs>
<clipPath id="clip0_678_4652">
<rect width="30.044" height="30.044" fill="white" transform="translate(0.84375)"/>
</clipPath>
</defs>
</svg>
